<svg id="SvgjsSvg1001" width="288" height="288" xmlns="http://www.w3.org/2000/svg" version="1.1" xmlns:xlink="http://www.w3.org/1999/xlink" xmlns:svgjs="http://svgjs.com/svgjs"><defs id="SvgjsDefs1002"></defs><g id="SvgjsG1008" transform="matrix(1,0,0,1,0,0)"><svg xmlns="http://www.w3.org/2000/svg" viewBox="0 0 320 512" width="288" height="288"><!--! Font Awesome Free 6.0.0-beta3 by @fontawesome - https://fontawesome.com License - https://fontawesome.com/license/free (Icons: CC BY 4.0, Fonts: SIL OFL 1.1, Code: MIT License) Copyright 2021 Fonticons, Inc.--><path d="M272 63.1l-32 0c-26.51 0-48 21.49-48 47.1v288c0 26.51 21.49 48 48 48L272 448c26.51 0 48-21.49 48-48v-288C320 85.49 298.5 63.1 272 63.1zM80 63.1l-32 0c-26.51 0-48 21.49-48 48v288C0 426.5 21.49 448 48 448l32 0c26.51 0 48-21.49 48-48v-288C128 85.49 106.5 63.1 80 63.1z" fill="#ffe1db" class="color000 svgShape"></path></svg></g></svg>